name ./resultDataOpenSim/trcMotMarkerGrf/sub09/grf-15-03.mot
datacolumns 19
datarows 25
range 0.49200000 0.58800000
endheader

                time	     ground_force_vx	     ground_force_vy	     ground_force_vz	     ground_force_px	     ground_force_py	     ground_force_pz	   l_ground_force_vx	   l_ground_force_vy	   l_ground_force_vz	   l_ground_force_px	   l_ground_force_py	   l_ground_force_pz	     ground_torque_x	     ground_torque_y	     ground_torque_z	   l_ground_torque_x	   l_ground_torque_y	   l_ground_torque_z	
          0.49200000	         55.11042891	        563.01457891	        -31.39990998	         -0.72655765	          0.00000000	          0.07972791	          0.00000000	          0.00000000	          0.00000000	          0.00000000	          0.00000000	          0.00000000	          0.00000000	          8.36025340	          0.00000000	          0.00000000	          0.00000000	          0.00000000	
          0.49600000	         57.12542118	        572.89702714	        -33.63776212	         -0.72327648	          0.00000000	          0.08030173	          0.00000000	          0.00000000	          0.00000000	          0.00000000	          0.00000000	          0.00000000	          0.00000000	          8.33037544	          0.00000000	          0.00000000	          0.00000000	          0.00000000	
          0.50000000	         59.27816910	        582.41299947	        -36.24586483	         -0.71980975	          0.00000000	          0.08089987	          0.00000000	          0.00000000	          0.00000000	          0.00000000	          0.00000000	          0.00000000	          0.00000000	          8.20095397	          0.00000000	          0.00000000	          0.00000000	          0.00000000	
          0.50400000	         61.50958798	        591.55063999	        -38.95514057	         -0.71621489	          0.00000000	          0.08149001	          0.00000000	          0.00000000	          0.00000000	          0.00000000	          0.00000000	          0.00000000	          0.00000000	          8.00429734	          0.00000000	          0.00000000	          0.00000000	          0.00000000	
          0.50800000	         63.74459430	        600.14137808	        -41.48433881	         -0.71244973	          0.00000000	          0.08208578	          0.00000000	          0.00000000	          0.00000000	          0.00000000	          0.00000000	          0.00000000	          0.00000000	          7.77737705	          0.00000000	          0.00000000	          0.00000000	          0.00000000	
          0.51200000	         65.89269442	        608.02829499	        -43.58046150	         -0.70840862	          0.00000000	          0.08270986	          0.00000000	          0.00000000	          0.00000000	          0.00000000	          0.00000000	          0.00000000	          0.00000000	          7.55314928	          0.00000000	          0.00000000	          0.00000000	          0.00000000	
          0.51600000	         67.88803913	        615.31977956	        -45.07174419	         -0.70410204	          0.00000000	          0.08333674	          0.00000000	          0.00000000	          0.00000000	          0.00000000	          0.00000000	          0.00000000	          0.00000000	          7.35339186	          0.00000000	          0.00000000	          0.00000000	          0.00000000	
          0.52000000	         69.74969913	        622.41997112	        -45.91145971	         -0.69972073	          0.00000000	          0.08390296	          0.00000000	          0.00000000	          0.00000000	          0.00000000	          0.00000000	          0.00000000	          0.00000000	          7.18443322	          0.00000000	          0.00000000	          0.00000000	          0.00000000	
          0.52400000	         71.56867112	        629.78899090	        -46.18989088	         -0.69547959	          0.00000000	          0.08436012	          0.00000000	          0.00000000	          0.00000000	          0.00000000	          0.00000000	          0.00000000	          0.00000000	          7.03652888	          0.00000000	          0.00000000	          0.00000000	          0.00000000	
          0.52800000	         73.44590902	        637.65956639	        -46.09939410	         -0.69144354	          0.00000000	          0.08470829	          0.00000000	          0.00000000	          0.00000000	          0.00000000	          0.00000000	          0.00000000	          0.00000000	          6.88710392	          0.00000000	          0.00000000	          0.00000000	          0.00000000	
          0.53200000	         75.47418056	        645.97215982	        -45.86912112	         -0.68754420	          0.00000000	          0.08498056	          0.00000000	          0.00000000	          0.00000000	          0.00000000	          0.00000000	          0.00000000	          0.00000000	          6.70729441	          0.00000000	          0.00000000	          0.00000000	          0.00000000	
          0.53600000	         77.76248763	        654.58715088	        -45.70267093	         -0.68374223	          0.00000000	          0.08519817	          0.00000000	          0.00000000	          0.00000000	          0.00000000	          0.00000000	          0.00000000	          0.00000000	          6.47032170	          0.00000000	          0.00000000	          0.00000000	          0.00000000	
          0.54000000	         80.43513948	        663.51365557	        -45.73167276	         -0.68014581	          0.00000000	          0.08533900	          0.00000000	          0.00000000	          0.00000000	          0.00000000	          0.00000000	          0.00000000	          0.00000000	          6.15968487	          0.00000000	          0.00000000	          0.00000000	          0.00000000	
          0.54400000	         83.58956250	        672.86652850	        -45.98624214	         -0.67694306	          0.00000000	          0.08535418	          0.00000000	          0.00000000	          0.00000000	          0.00000000	          0.00000000	          0.00000000	          0.00000000	          5.77522535	          0.00000000	          0.00000000	          0.00000000	          0.00000000	
          0.54800000	         87.25216375	        682.62536134	        -46.38400807	         -0.67423640	          0.00000000	          0.08521765	          0.00000000	          0.00000000	          0.00000000	          0.00000000	          0.00000000	          0.00000000	          0.00000000	          5.33571815	          0.00000000	          0.00000000	          0.00000000	          0.00000000	
          0.55200000	         91.36839026	        692.52273729	        -46.73509323	         -0.67195984	          0.00000000	          0.08495038	          0.00000000	          0.00000000	          0.00000000	          0.00000000	          0.00000000	          0.00000000	          0.00000000	          4.87741283	          0.00000000	          0.00000000	          0.00000000	          0.00000000	
          0.55600000	         95.83259975	        702.19492556	        -46.76970578	         -0.66997082	          0.00000000	          0.08458788	          0.00000000	          0.00000000	          0.00000000	          0.00000000	          0.00000000	          0.00000000	          0.00000000	          4.44861559	          0.00000000	          0.00000000	          0.00000000	          0.00000000	
          0.56000000	        100.53393183	        711.39219080	        -46.20061641	         -0.66819304	          0.00000000	          0.08413889	          0.00000000	          0.00000000	          0.00000000	          0.00000000	          0.00000000	          0.00000000	          0.00000000	          4.10107796	          0.00000000	          0.00000000	          0.00000000	          0.00000000	
          0.56400000	        105.38813507	        720.01400417	        -44.80803269	         -0.66664275	          0.00000000	          0.08359067	          0.00000000	          0.00000000	          0.00000000	          0.00000000	          0.00000000	          0.00000000	          0.00000000	          3.87977440	          0.00000000	          0.00000000	          0.00000000	          0.00000000	
          0.56800000	        110.34577461	        727.97886544	        -42.51413242	         -0.66534001	          0.00000000	          0.08294454	          0.00000000	          0.00000000	          0.00000000	          0.00000000	          0.00000000	          0.00000000	          0.00000000	          3.81334535	          0.00000000	          0.00000000	          0.00000000	          0.00000000	
          0.57200000	        115.39184985	        735.11929093	        -39.40864705	         -0.66423406	          0.00000000	          0.08223280	          0.00000000	          0.00000000	          0.00000000	          0.00000000	          0.00000000	          0.00000000	          0.00000000	          3.90755176	          0.00000000	          0.00000000	          0.00000000	          0.00000000	
          0.57600000	        120.55047362	        741.23041831	        -35.70971926	         -0.66323930	          0.00000000	          0.08150032	          0.00000000	          0.00000000	          0.00000000	          0.00000000	          0.00000000	          0.00000000	          0.00000000	          4.14331376	          0.00000000	          0.00000000	          0.00000000	          0.00000000	
          0.58000000	        125.88532158	        746.19419866	        -31.70350759	         -0.66233016	          0.00000000	          0.08077374	          0.00000000	          0.00000000	          0.00000000	          0.00000000	          0.00000000	          0.00000000	          0.00000000	          4.47966613	          0.00000000	          0.00000000	          0.00000000	          0.00000000	
          0.58400000	        131.47383938	        749.99595902	        -27.70576799	         -0.66156224	          0.00000000	          0.08005971	          0.00000000	          0.00000000	          0.00000000	          0.00000000	          0.00000000	          0.00000000	          0.00000000	          4.86089039	          0.00000000	          0.00000000	          0.00000000	          0.00000000	
          0.58800000	        137.35470913	        752.58714638	        -24.03021562	         -0.66097728	          0.00000000	          0.07936917	          0.00000000	          0.00000000	          0.00000000	          0.00000000	          0.00000000	          0.00000000	          0.00000000	          5.22641160	          0.00000000	          0.00000000	          0.00000000	          0.00000000	
